{
  "accessors": [
    {
      "bufferView": 2,
      "componentType": 5126,
      "count": 527,
      "max": [
        22.517807006835938,
        5.37623405456543,
        1.6624799966812134
      ],
      "min": [
        20.275455474853516,
        3.606451988220215,
        -0.14443500339984894
      ],
      "type": "VEC3"
    },
    {
      "bufferView": 2,
      "byteOffset": 6324,
      "componentType": 5126,
      "count": 527,
      "max": [
        0.9091847538948059,
        0.9999946355819702,
        0.9929296970367432
      ],
      "min": [
        -0.9997513890266418,
        -0.9999946355819702,
        -0.9986521601676941
      ],
      "type": "VEC3"
    },
    {
      "bufferView": 1,
      "componentType": 5126,
      "count": 527,
      "max": [
        1.0,
        1.0
      ],
      "min": [
        0.0,
        0.09375
      ],
      "type": "VEC2"
    },
    {
      "bufferView": 0,
      "componentType": 5125,
      "count": 2784,
      "type": "SCALAR"
    },
    {
      "bufferView": 2,
      "byteOffset": 12648,
      "componentType": 5126,
      "count": 875,
      "max": [
        23.464868545532227,
        4.789085865020752,
        0.7234839797019958
      ],
      "min": [
        22.48971939086914,
        4.193601131439209,
        0.040787000209093094
      ],
      "type": "VEC3"
    },
    {
      "bufferView": 2,
      "byteOffset": 23148,
      "componentType": 5126,
      "count": 875,
      "max": [
        0.9999995231628418,
        0.9999997615814209,
        0.9872947931289673
      ],
      "min": [
        -0.999998927116394,
        -0.9999997615814209,
        -0.9874069690704346
      ],
      "type": "VEC3"
    },
    {
      "bufferView": 1,
      "byteOffset": 4216,
      "componentType": 5126,
      "count": 875,
      "max": [
        0.875,
        1.0
      ],
      "min": [
        0.125,
        0.0
      ],
      "type": "VEC2"
    },
    {
      "bufferView": 0,
      "byteOffset": 11136,
      "componentType": 5125,
      "count": 4032,
      "type": "SCALAR"
    },
    {
      "bufferView": 2,
      "byteOffset": 33648,
      "componentType": 5126,
      "count": 1351,
      "max": [
        28.74712371826172,
        5.491342067718506,
        1.779175043106079
      ],
      "min": [
        20.068628311157227,
        3.4913439750671387,
        -0.25476500391960144
      ],
      "type": "VEC3"
    },
    {
      "bufferView": 2,
      "byteOffset": 49860,
      "componentType": 5126,
      "count": 1351,
      "max": [
        0.9999996423721313,
        0.9999948740005493,
        0.9985354542732239
      ],
      "min": [
        -0.9993767738342285,
        -0.9999948740005493,
        -0.9999960660934448
      ],
      "type": "VEC3"
    },
    {
      "bufferView": 1,
      "byteOffset": 11216,
      "componentType": 5126,
      "count": 1351,
      "max": [
        1.0,
        1.0
      ],
      "min": [
        0.0,
        0.0
      ],
      "type": "VEC2"
    },
    {
      "bufferView": 0,
      "byteOffset": 27264,
      "componentType": 5125,
      "count": 7488,
      "type": "SCALAR"
    }
  ],
  "asset": {
    "extras": {
      "author": "Enith2478 (https://sketchfab.com/Enith2478)",
      "license": "CC-BY-4.0 (http://creativecommons.org/licenses/by/4.0/)",
      "source": "https://sketchfab.com/3d-models/sperm-b5bac9ea81bf497290e869dcda33695b",
      "title": "Sperm"
    },
    "generator": "Sketchfab-13.46.0",
    "version": "2.0"
  },
  "bufferViews": [
    {
      "buffer": 0,
      "byteLength": 57216,
      "name": "floatBufferViews",
      "target": 34963
    },
    {
      "buffer": 0,
      "byteLength": 22024,
      "byteOffset": 57216,
      "byteStride": 8,
      "name": "floatBufferViews",
      "target": 34962
    },
    {
      "buffer": 0,
      "byteLength": 66072,
      "byteOffset": 79240,
      "byteStride": 12,
      "name": "floatBufferViews",
      "target": 34962
    }
  ],
  "buffers": [
    {
      "byteLength": 145312,
      "uri": "scene.bin"
    }
  ],
  "extensionsUsed": [
    "KHR_materials_clearcoat"
  ],
  "materials": [
    {
      "doubleSided": true,
      "name": "Material",
      "pbrMetallicRoughness": {
        "baseColorFactor": [
          0.8,
          0.8,
          0.8,
          1.0
        ],
        "metallicFactor": 0.0,
        "roughnessFactor": 0.7704074637
      }
    },
    {
      "doubleSided": true,
      "name": "Material.002",
      "pbrMetallicRoughness": {
        "baseColorFactor": [
          0.8,
          0.376876,
          0.314327,
          1.0
        ],
        "metallicFactor": 0.0,
        "roughnessFactor": 0.0
      }
    },
    {
      "doubleSided": true,
      "extensions": {
        "KHR_materials_clearcoat": {
          "clearcoatFactor": 1.0,
          "clearcoatRoughnessFactor": 0.04
        }
      },
      "name": "Sperm",
      "pbrMetallicRoughness": {
        "baseColorFactor": [
          0.5343165598994581,
          0.2993169494666726,
          0.2993169494666726,
          1.0
        ],
        "metallicFactor": 0.0,
        "roughnessFactor": 0.0
      }
    }
  ],
  "meshes": [
    {
      "name": "Object_0",
      "primitives": [
        {
          "attributes": {
            "NORMAL": 1,
            "POSITION": 0,
            "TEXCOORD_0": 2
          },
          "indices": 3,
          "material": 0,
          "mode": 4
        }
      ]
    },
    {
      "name": "Object_1",
      "primitives": [
        {
          "attributes": {
            "NORMAL": 5,
            "POSITION": 4,
            "TEXCOORD_0": 6
          },
          "indices": 7,
          "material": 1,
          "mode": 4
        }
      ]
    },
    {
      "name": "Object_2",
      "primitives": [
        {
          "attributes": {
            "NORMAL": 9,
            "POSITION": 8,
            "TEXCOORD_0": 10
          },
          "indices": 11,
          "material": 2,
          "mode": 4
        }
      ]
    }
  ],
  "nodes": [
    {
      "children": [
        1
      ],
      "matrix": [
        1.0,
        0.0,
        0.0,
        0.0,
        0.0,
        2.220446049250313e-16,
        -1.0,
        0.0,
        0.0,
        1.0,
        2.220446049250313e-16,
        0.0,
        0.0,
        0.0,
        0.0,
        1.0
      ],
      "name": "Sketchfab_model"
    },
    {
      "children": [
        2,
        3,
        4
      ],
      "name": "Sperm.obj.cleaner.materialmerger.gles"
    },
    {
      "mesh": 0,
      "name": "Object_2"
    },
    {
      "mesh": 1,
      "name": "Object_3"
    },
    {
      "mesh": 2,
      "name": "Object_4"
    }
  ],
  "scene": 0,
  "scenes": [
    {
      "name": "Sketchfab_Scene",
      "nodes": [
        0
      ]
    }
  ]
}
